<?xml version="1.0" standalone="no"?><!DOCTYPE svg PUBLIC "-//W3C//DTD SVG 1.1//EN" "http://www.w3.org/Graphics/SVG/1.1/DTD/svg11.dtd"><svg t="1573528495139" class="icon" viewBox="0 0 1024 1024" version="1.1" xmlns="http://www.w3.org/2000/svg" p-id="4404" xmlns:xlink="http://www.w3.org/1999/xlink" width="350" height="350"><defs><style type="text/css"></style></defs><path d="M812.218182 914.618182H211.781818a146.618182 146.618182 0 0 1-102.4-48.872727A160.581818 160.581818 0 0 1 69.818182 758.690909V328.145455a139.636364 139.636364 0 0 1 141.963636-139.636364h23.272727l18.618182-9.309091a46.545455 46.545455 0 0 0 13.963637-18.618182l27.927272-53.527273A76.8 76.8 0 0 1 325.818182 79.127273a62.836364 62.836364 0 0 1 37.236363-9.309091h295.563637a65.163636 65.163636 0 0 1 39.563636 9.309091h2.327273a67.490909 67.490909 0 0 1 27.927273 27.927272L756.363636 162.909091a41.890909 41.890909 0 0 0 13.963637 16.290909l18.618182 9.309091h23.272727a139.636364 139.636364 0 0 1 141.963636 139.636364v430.545454a160.581818 160.581818 0 0 1-41.890909 107.054546 146.618182 146.618182 0 0 1-100.072727 48.872727zM211.781818 237.381818a90.763636 90.763636 0 0 0-67.490909 25.6A93.090909 93.090909 0 0 0 116.363636 328.145455v430.545454a114.036364 114.036364 0 0 0 27.927273 76.8 100.072727 100.072727 0 0 0 67.490909 34.909091h600.436364a100.072727 100.072727 0 0 0 67.490909-34.909091 114.036364 114.036364 0 0 0 27.927273-76.8V328.145455a93.090909 93.090909 0 0 0-27.927273-67.49091 90.763636 90.763636 0 0 0-67.490909-25.6h-23.272727a83.781818 83.781818 0 0 1-44.218182-13.963636A88.436364 88.436364 0 0 1 714.472727 186.181818l-27.927272-58.181818-11.636364-9.309091H349.090909a32.581818 32.581818 0 0 0-13.963636 11.636364l-25.6 53.527272A90.763636 90.763636 0 0 1 279.272727 221.090909a83.781818 83.781818 0 0 1-44.218182 16.290909zM512 774.981818a242.036364 242.036364 0 1 1 242.036364-242.036363A242.036364 242.036364 0 0 1 512 774.981818z m0-439.854545a195.490909 195.490909 0 1 0 195.490909 195.490909 195.490909 195.490909 0 0 0-195.490909-195.490909z" fill="#8a8a8a" p-id="4405"></path></svg>